<svg width="24" height="24" viewBox="0 0 24 24" fill="none" xmlns="http://www.w3.org/2000/svg">
<g clip-path="url(#clip0_2_588)">
<path d="M22.75 24H15.05C14.65 24 14.3 23.65 14.3 23.25V17.1C14.3 15.8 13.25 14.8 12 14.8C10.75 14.8 9.7 15.85 9.7 17.1V23.25C9.7 23.65 9.35 24 8.95 24H1.25C0.85 24 0.5 23.65 0.5 23.25V11.5C0.5 11.3 0.6 11.1 0.7 10.95L11.45 0.200006C11.75 -0.0999939 12.25 -0.0999939 12.5 0.200006L23.25 10.95C23.4 11.1 23.45 11.3 23.45 11.5V23.25C23.5 23.65 23.15 24 22.75 24Z" fill="#262626"/>
</g>
<defs>
<clipPath id="clip0_2_588">
<rect width="24" height="24" fill="white"/>
</clipPath>
</defs>
</svg>
