<svg width="16" height="16" viewBox="0 0 16 16" fill="none" xmlns="http://www.w3.org/2000/svg">
<path d="M13.061 4.42617C12.4707 3.89003 11.7732 3.53261 10.2707 3.53261H9.38537L10.2439 2.63905C10.4049 2.48587 10.378 2.23057 10.2171 2.10292C10.0561 1.94973 9.78781 1.97526 9.65366 2.12845L8.5 3.30284L7.34634 2.12845C7.18537 1.97526 6.9439 1.97526 6.78293 2.10292C6.62195 2.2561 6.59512 2.48587 6.7561 2.63905L7.61463 3.53261H6.72927C5.22683 3.53261 4.52927 3.89003 3.93902 4.42617C3.37561 4.98783 3 5.65162 3 7.08131V10.4258C3 11.881 3.37561 12.5448 3.93902 13.1064C4.52927 13.6426 5.22683 14 6.72927 14H10.2439C11.7732 14 12.4707 13.6426 13.061 13.1064C13.6244 12.5448 14 11.881 14 10.4513V7.10684C14 5.65162 13.6244 4.98783 13.061 4.42617ZM13.1951 10.4513C13.1951 11.7789 12.8463 12.2384 12.4976 12.5703C12.122 12.9022 11.639 13.2341 10.2439 13.2341H6.72927C5.33415 13.2341 4.85122 12.9022 4.50244 12.5703C4.15366 12.2129 3.80488 11.7533 3.80488 10.4258V7.10684C3.80488 5.77927 4.15366 5.31972 4.50244 4.98783C4.87805 4.65594 5.36098 4.32404 6.7561 4.32404H10.2707C11.6659 4.32404 12.1488 4.65594 12.4976 4.98783C12.8463 5.34525 13.1951 5.8048 13.1951 7.13237V10.4513ZM11.3439 8.2557L8.90244 8.97055V8.02593C8.90244 7.89828 8.84878 7.79615 8.74146 7.71956C8.63415 7.64297 8.5 7.61744 8.39268 7.6685L5.41463 8.53653C5.2 8.58759 5.09268 8.81736 5.14634 9.02161C5.2 9.22585 5.44146 9.32797 5.6561 9.27691L8.09756 8.56206V9.50668C8.09756 9.63433 8.15122 9.73645 8.25854 9.81304C8.33902 9.8641 8.41951 9.88963 8.5 9.88963C8.52683 9.88963 8.58049 9.88963 8.60732 9.8641L11.5854 8.99608C11.8 8.94502 11.9073 8.71524 11.8537 8.511C11.8 8.30676 11.5585 8.20464 11.3439 8.2557Z" fill="#8E8E8E"/>
</svg>
