<svg width="24" height="24" viewBox="0 0 24 24" fill="none" xmlns="http://www.w3.org/2000/svg">
<g clip-path="url(#clip0_2_592)">
<path fill-rule="evenodd" clip-rule="evenodd" d="M12 0C5.4 0 0 5.4 0 12C0 18.6 5.4 24 12 24C18.6 24 24 18.6 24 12C24 5.4 18.6 0 12 0ZM12 22.5C6.2 22.5 1.5 17.8 1.5 12C1.5 6.2 6.2 1.5 12 1.5C17.8 1.5 22.5 6.2 22.5 12C22.5 17.8 17.8 22.5 12 22.5ZM17.1 5.9L9.7 9.4C9.55 9.45 9.4 9.6 9.35 9.75L5.85 17.15C5.7 17.45 5.75 17.8 6 18C6.15 18.15 6.35 18.2 6.55 18.2C6.65 18.2 6.75 18.2 6.85 18.15L14.25 14.65C14.4 14.6 14.55 14.45 14.6 14.3L18.1 6.9C18.25 6.6 18.2 6.25 17.95 6.05C17.75 5.8 17.4 5.75 17.1 5.9ZM13.4 13.4L10.65 10.65L15.9 8.15L13.4 13.4Z" fill="#262626"/>
</g>
<defs>
<clipPath id="clip0_2_592">
<rect width="24" height="24" fill="white"/>
</clipPath>
</defs>
</svg>
