<svg width="24" height="24" viewBox="0 0 24 24" fill="none" xmlns="http://www.w3.org/2000/svg">
<g clip-path="url(#clip0_2_594)">
<path d="M18.1 8.35L14.5 11.1C14.25 11.3 13.9 11.3 13.65 11.1L10.95 9.1C10.15 8.5 9 8.7 8.45 9.55L5.05 14.9C4.7 15.4 5.35 16 5.85 15.65L9.5 12.9C9.75 12.7 10.1 12.7 10.35 12.9L13.05 14.9C13.85 15.5 15 15.3 15.55 14.45L18.95 9.1C19.25 8.55 18.6 8 18.1 8.35ZM12 0.5C5.5 0.5 0.5 5.25 0.5 11.65C0.5 15 1.85 17.9 4.1 19.9C4.3 20.05 4.4 20.3 4.4 20.55L4.5 22.6C4.5 23.1 4.95 23.5 5.4 23.5C5.5 23.5 5.65 23.5 5.75 23.4L8.05 22.4C8.15 22.35 8.3 22.3 8.4 22.3C8.5 22.3 8.55 22.3 8.65 22.35C9.7 22.65 10.8 22.8 12 22.8C18.5 22.8 23.5 18.05 23.5 11.65C23.5 5.25 18.5 0.5 12 0.5ZM12 21.3C11 21.3 10 21.15 9.05 20.9C8.85 20.85 8.65 20.8 8.4 20.8C8.05 20.8 7.75 20.85 7.4 21L5.9 21.65V20.5C5.9 19.85 5.6 19.25 5.1 18.8C3.1 17 2 14.45 2 11.65C2 6.15 6.3 2 12 2C17.7 2 22 6.15 22 11.65C22 17.15 17.7 21.3 12 21.3Z" fill="#262626"/>
</g>
<defs>
<clipPath id="clip0_2_594">
<rect width="24" height="24" fill="white"/>
</clipPath>
</defs>
</svg>
