<svg width="16" height="16" viewBox="0 0 16 16" fill="none" xmlns="http://www.w3.org/2000/svg">
<path d="M12.25 3.2625H9.475C9.35 3.2625 9.225 3.2125 9.125 3.1125L8.125 2.1125C7.975 1.9625 7.75 1.9625 7.6 2.1125L6.6 3.1125C6.5 3.2125 6.375 3.2625 6.25 3.2625H3.5C2.675 3.2625 2 3.9375 2 4.7625V12.2625C2 13.0875 2.675 13.7625 3.5 13.7625H12.25C13.075 13.7625 13.75 13.0875 13.75 12.2625V4.7625C13.75 3.9375 13.075 3.2625 12.25 3.2625ZM4.9 13.0125C4.75 13.0125 4.625 12.8625 4.65 12.7125C4.825 11.9125 5.525 11.3125 6.35 11.3125H9.35C10.2 11.3125 10.9 11.9125 11.05 12.7125C11.075 12.8625 10.95 13.0125 10.8 13.0125H4.9ZM13 12.2625C13 12.6875 12.675 13.0125 12.25 13.0125H12.1C11.975 13.0125 11.875 12.9125 11.85 12.7875C11.7 11.5375 10.65 10.5625 9.375 10.5625H6.375C5.1 10.5625 4.025 11.5375 3.9 12.7875C3.875 12.9125 3.775 13.0125 3.65 13.0125H3.5C3.075 13.0125 2.75 12.6875 2.75 12.2625V4.7625C2.75 4.3375 3.075 4.0125 3.5 4.0125H6.275C6.6 4.0125 6.925 3.8875 7.15 3.6375L7.875 2.9125L8.6 3.6375C8.825 3.8625 9.15 4.0125 9.475 4.0125H12.25C12.675 4.0125 13 4.3375 13 4.7625V12.2625ZM7.875 5.0125C6.55 5.0125 5.475 6.0875 5.475 7.4125C5.475 8.7375 6.55 9.8125 7.875 9.8125C9.2 9.8125 10.275 8.7375 10.275 7.4125C10.275 6.0875 9.2 5.0125 7.875 5.0125ZM7.875 9.0375C6.975 9.0375 6.225 8.3125 6.225 7.3875C6.225 6.4875 6.95 5.7375 7.875 5.7375C8.8 5.7375 9.525 6.4625 9.525 7.3875C9.525 8.2875 8.775 9.0375 7.875 9.0375Z" fill="#8E8E8E"/>
</svg>
